<svg width="1390" height="917" viewBox="0 0 1390 917" fill="none" xmlns="http://www.w3.org/2000/svg">
<g clip-path="url(#clip0_2090_842)">
<rect width="1390" height="917" rx="7.79804" fill="white"/>
<g clip-path="url(#clip1_2090_842)">
<path d="M721.676 477.344L-251.958 210.408C-251.958 210.408 -151.899 144.924 1.72223 183.524C155.344 222.124 244.183 309.881 244.183 309.881C244.183 309.881 330.858 338.607 452.195 375.2C573.533 411.782 721.686 477.354 721.686 477.354L721.676 477.344Z" fill="#F2F5F8"/>
<path d="M657.095 240.851L157.642 23.9178C157.642 23.9178 211.96 6.07521 290.88 38.7804C369.801 71.4856 413.335 118.669 413.335 118.669C413.335 118.669 473.46 132.069 535.592 160.534C597.724 188.999 657.105 240.85 657.105 240.85L657.095 240.851Z" fill="#F2F5F8"/>
<path d="M1150.5 462L2124.13 195.064C2124.13 195.064 2024.07 129.58 1870.45 168.18C1716.83 206.781 1627.99 294.538 1627.99 294.538C1627.99 294.538 1576.19 311.703 1496.63 336.403C1473.28 343.656 1447.92 339.016 1420.38 347.321C1380.2 359.437 1337.81 392.403 1298.05 409.276C1269.22 421.509 1242.03 427.017 1219.08 435.117C1178.08 449.602 1150.5 462 1150.5 462Z" fill="#F2F5F8"/>
<path d="M1003.78 254.101L1502.24 34.8789C1502.24 34.8789 1447.84 17.2783 1369.08 50.3511C1290.31 83.4239 1246.99 130.801 1246.99 130.801C1246.99 130.801 1186.93 144.478 1124.93 173.227C1062.93 201.977 1003.78 254.101 1003.78 254.101Z" fill="#F2F5F8"/>
<g opacity="0.5">
<path d="M1213.54 454.711L1343.37 595.992H975.949L1213.55 454.711H1213.54Z" fill="#E1E8EE"/>
<path opacity="0.21" d="M1222.85 483.663L1213.7 454.723L1153.03 490.204V632.615L1234.63 574.578L1240.35 506.55L1202.75 486.597L1222.85 483.653V483.663Z" fill="#58626E"/>
</g>
<g opacity="0.5">
<path d="M859.962 472.945L960.498 609.976H675.996L859.962 472.945Z" fill="#E7EDF1"/>
<path opacity="0.21" d="M867.185 501.018L860.099 472.945L813.125 507.364L810.464 591.583L876.299 589.204L880.734 523.223L851.609 503.874L867.185 501.018Z" fill="#58626E"/>
</g>
<path d="M924.852 487.941H978.727V677.346H924.852V487.941Z" fill="#F5F6F6"/>
<path d="M871.991 548.465H925.865V677.337H871.991V548.465Z" fill="#F5F6F6"/>
<path d="M821.744 582.305H875.619V677.333H821.744V582.305Z" fill="#F5F6F6"/>
<path d="M779.086 524.191H832.961V677.345H779.086V524.191Z" fill="#F5F6F6"/>
<path d="M734.16 487.941H788.035V677.346H734.16V487.941Z" fill="#F5F6F6"/>
<path d="M681.309 548.465H735.184V677.337H681.309V548.465Z" fill="#F5F6F6"/>
<path d="M631.051 582.305H684.926V677.333H631.051V582.305Z" fill="#F5F6F6"/>
<path d="M588.397 524.191H642.271V677.345H588.397V524.191Z" fill="#F5F6F6"/>
<path d="M1117.46 515.84H1171.34V677.337H1117.46V515.84Z" fill="#ECF0F4"/>
<path d="M1064.61 567.453H1118.49V677.337H1064.61V567.453Z" fill="#F5F6F6"/>
<path d="M1014.36 596.312H1068.24V677.334H1014.36V596.312Z" fill="#F5F6F6"/>
<path d="M971.709 546.758H1025.58V677.346H971.709V546.758Z" fill="#F5F6F6"/>
<path d="M1054.12 565.216L1033.6 544.707L1013.09 565.216H1054.12Z" fill="#D6DDE5"/>
<path d="M1013.08 565.215H1054.12V616H1013.08V565.215Z" fill="#D6DDE5"/>
<path d="M1040.4 571.25H1046.31V584.341H1040.4V571.25Z" fill="#B7BEC5"/>
<path d="M1021.4 571.25H1027.31V584.341H1021.4V571.25Z" fill="#B7BEC5"/>
<path d="M1033.6 544.707H1080.72L1100.49 565.216H1054.12L1033.6 544.707Z" fill="#E1E8EE"/>
<path d="M1054.13 565.215H1100.49V616H1054.13V565.215Z" fill="#CAD1D8"/>
<path d="M1253.03 487.852L1238.42 473.23L1223.81 487.852H1253.03Z" fill="#D6DDE5"/>
<path d="M1223.81 487.852H1253.03V524.025H1223.81V487.852Z" fill="#D6DDE5"/>
<path d="M1243.27 492.152H1247.48V501.481H1243.27V492.152Z" fill="#E9EDF0"/>
<path d="M1229.74 492.152H1233.95V501.481H1229.74V492.152Z" fill="#E9EDF0"/>
<path d="M1238.42 473.23H1271.98L1286.07 487.852H1253.03L1238.42 473.23Z" fill="#E1E8EE"/>
<path d="M1253.04 487.852H1286.07V524.025H1253.04V487.852Z" fill="#D1D7DD"/>
<path d="M488.844 519.633L628.203 439.117L782.271 519.633V682.222H488.844V519.633Z" fill="#ABB6C1"/>
<path d="M792.126 478.095L628.205 439.117L782.273 519.633L919.944 539.373L792.126 478.095Z" fill="#E1E8EE"/>
<path d="M782.271 519.633V682.221H919.942V539.373" fill="#CAD2D8"/>
<path d="M892.305 595.424L936.969 556.426L968.627 595.424H892.305Z" fill="#CAD2D8"/>
<path d="M801.648 595.424L846.313 556.426H936.968L892.303 595.424H801.648Z" fill="#E1E8EE"/>
<path d="M927.631 597.927L956.24 570.512L979.189 597.927H927.631Z" fill="#CAD2D8"/>
<path d="M910.014 597.927L941.497 570.512H956.241L927.632 597.927H910.014Z" fill="#E1E8EE"/>
<path d="M979.379 597.508H927.744V681.938H979.379V597.508Z" fill="#CAD2D8"/>
<path d="M927.743 597.508H910.299V681.938H927.743V597.508Z" fill="#ABB6C1"/>
<path d="M892.303 595.426H801.648V682.222H892.303V595.426Z" fill="#ABB6C1"/>
<path d="M482.459 463.484L600.541 512.963H371.873L482.459 463.484Z" fill="#C8D5E0"/>
<path d="M600.532 512.965H373.746V646.038H600.532V512.965Z" fill="#ABB6C1"/>
<path d="M482.459 463.484L650.877 518.753V520.04L600.541 512.963L482.459 463.484Z" fill="#E1E8EE"/>
<path d="M648.557 646.048H600.541V512.965L648.557 519.72V646.048Z" fill="#CAD2D8"/>
<path d="M616.975 579.498H662.583L635.69 558.648L616.975 579.498Z" fill="#C8D5E0"/>
<path d="M635.691 558.649L685.111 579.499H662.585L635.691 558.649Z" fill="#E1E8EE"/>
<path d="M685.111 646.046H662.584V579.5L685.111 579.529V646.046Z" fill="#CAD2D8"/>
<path d="M662.583 646.046H616.975V579.5L662.583 579.529V646.046Z" fill="#ABB6C1"/>
<path d="M-251.969 455.09L-57.2908 342.613L157.935 455.09V682.218H-251.969V455.09Z" fill="#ABB6C1"/>
<path d="M171.7 397.063L-57.2891 342.613L157.937 455.09L350.256 482.666L171.7 397.063Z" fill="#E1E8EE"/>
<path d="M157.934 455.094V682.221H350.253V482.67" fill="#CAD2D8"/>
<path d="M311.645 560.971L374.039 506.492L418.263 560.971H311.645Z" fill="#CAD2D8"/>
<path d="M185.004 560.971L247.398 506.492H374.038L311.644 560.971H185.004Z" fill="#E1E8EE"/>
<path d="M360.996 564.466L400.961 526.168L433.021 564.466H360.996Z" fill="#CAD2D8"/>
<path d="M336.383 564.466L380.364 526.168H400.96L360.995 564.466H336.383Z" fill="#E1E8EE"/>
<path d="M433.284 563.883H361.152V681.828H433.284V563.883Z" fill="#CAD2D8"/>
<path d="M361.154 563.883H336.785V681.828H361.154V563.883Z" fill="#ABB6C1"/>
<path d="M311.644 560.973H185.004V682.222H311.644V560.973Z" fill="#ABB6C1"/>
<path d="M1194.31 668.784C1194.31 627.162 1160.57 593.426 1118.95 593.426C1077.34 593.426 1043.6 627.172 1043.6 668.784" fill="#F1F5F8"/>
<path d="M1102.07 678.535C1102.07 630.295 1062.97 591.188 1014.72 591.188C966.484 591.188 927.377 630.295 927.377 678.535" fill="#E1E8EE"/>
<path d="M808.477 678.531C808.477 630.291 769.369 591.184 721.129 591.184C672.888 591.184 633.781 630.291 633.781 678.531" fill="#F1F5F8"/>
<path d="M503.115 681.449C503.115 633.209 464.008 594.102 415.767 594.102C367.527 594.102 328.42 633.209 328.42 681.449" fill="#F1F5F8"/>
<path d="M994.158 678.534C994.158 610.008 938.607 554.457 870.082 554.457C801.556 554.457 746.005 610.008 746.005 678.534" fill="#D6DDE5"/>
<path d="M609.422 620.625H483.678C455.245 620.625 432.163 643.707 432.163 672.141V758.338H660.938V672.141C660.938 643.707 637.855 620.625 609.422 620.625Z" fill="#F1F5F8"/>
<path d="M640.527 632.417C640.527 588.641 605.046 553.16 561.27 553.16C517.494 553.16 482.013 588.641 482.013 632.417" fill="#F1F5F8"/>
<path d="M1465.18 1011.32H1011.54C967.84 1011.32 925.838 994.376 894.363 964.051L841.405 913.023C808.731 881.548 801.937 831.758 824.98 792.68L890.036 682.347L995.475 687.65L1053.97 651.633L880.805 652.725L732.954 662.657L568.425 698.044L309.14 678.419L241.882 708.149L399.792 734.312L-41.8591 829.301V1171.48H1463.07L1465.18 1011.31V1011.32Z" fill="#8FA0B1"/>
<path d="M519.061 707.174H395.268L404.459 587.928C404.459 564.958 423.029 546.34 445.938 546.34H468.391C491.3 546.34 509.87 564.958 509.87 587.928L519.061 707.174Z" fill="#D6DDE5"/>
<path d="M430.359 724.717H316.312L324.78 614.866C324.78 593.706 341.888 576.555 362.993 576.555H383.678C404.784 576.555 421.891 593.706 421.891 614.866L430.359 724.717Z" fill="#D6DDE5"/>
<path d="M1464.18 1069.6L947.634 1064.9L724.464 958.786C716.51 955.004 710.983 947.479 709.735 938.764L698.214 857.577L866.476 682.365L978.378 664.371L1354.43 682.365L1463.07 723.451L1463.27 749.915L1464.18 1069.61V1069.6Z" fill="#ADB6C0"/>
<path d="M1464.18 952.724H1008.01L922.232 916.2L866.047 849.556L910.33 682.356L1159.39 616.492L1463.07 703.499L1464.18 952.724Z" fill="#C2C9D1"/>
<path d="M548.901 689.715L567.178 413.684" stroke="#73808E" stroke-width="4.87377" stroke-miterlimit="10"/>
<path d="M600.875 417.496L531.57 412.242" stroke="#73808E" stroke-width="4.87377" stroke-miterlimit="10"/>
<path d="M717.757 660.973L724.512 559.004" stroke="#E3E8ED" stroke-width="2.92426" stroke-miterlimit="10"/>
<path d="M736.959 560.405L711.352 558.465" stroke="#E3E8ED" stroke-width="2.92426" stroke-miterlimit="10"/>
<path d="M872.244 826.145H728.4" stroke="#73808E" stroke-width="0.974755" stroke-miterlimit="10"/>
<path d="M891.352 754.02H797.736" stroke="#73808E" stroke-width="0.731066" stroke-miterlimit="10"/>
<path d="M904.967 702.582H846.257" stroke="#73808E" stroke-width="0.487377" stroke-miterlimit="10"/>
<path d="M904.967 895.73L728.4 960.649" stroke="#73808E" stroke-width="0.974755" stroke-miterlimit="10"/>
<path d="M1464.66 1094.16H973.154C956.359 1094.16 939.759 1090.44 924.572 1083.27L737.565 994.989C721.297 987.308 709.687 972.297 706.344 954.615L698.215 911.57V857.578L708.888 932.761C710.662 945.238 718.567 955.989 729.943 961.399L929.553 1056.31C941.465 1061.97 954.468 1064.97 967.656 1065.09L1464.18 1069.61L1464.66 1094.17V1094.16Z" fill="#414851"/>
<mask id="mask0_2090_842" style="mask-type:alpha" maskUnits="userSpaceOnUse" x="772" y="655" width="255" height="41">
<path d="M773.473 693.527C786.632 686.379 823.38 668.281 845.604 664.772C867.829 661.262 941.293 658.436 975.247 657.461H1026.91" stroke="#C1CBD5" stroke-width="4.87377"/>
</mask>
<g mask="url(#mask0_2090_842)">
<path d="M798.817 692.066L768.6 689.629L812.951 664.285L1029.83 649.664L1030.1 655.513L986.457 656L943.081 657.462L892.393 661.361L841.706 666.235L798.817 692.066Z" fill="#C1CBD5"/>
</g>
<path d="M514.813 694.502L564.525 699.376L732.67 662.823L750.703 661.361L709.276 659.898L514.813 694.502Z" fill="#ADB6C0"/>
<path d="M153.179 754.936H328.635L315.607 585.823C315.607 553.248 289.288 526.844 256.818 526.844H224.996C192.526 526.844 166.206 553.248 166.206 585.823L153.179 754.936Z" fill="#73808E"/>
<path d="M328.635 754.935C328.635 685.489 272.555 629.191 203.379 629.191C134.202 629.191 78.1228 685.489 78.1228 754.935" fill="#73808E"/>
<path d="M186.32 782.229C186.32 707.4 125.441 646.738 50.3421 646.738C-24.7563 646.738 -85.6362 707.4 -85.6362 782.229" fill="#73808E"/>
<path d="M563.063 698.398V704.247L732.533 663.951V662.664" fill="#414851"/>
<path d="M562.926 698.399L-23.3891 826.092V779.791L517.112 694.5L562.926 698.399Z" fill="#ADB6C0"/>
<path d="M563.414 704.247V698.398L-2.91833 820.243V844.612L563.414 704.247Z" fill="#414851"/>
<path d="M300.717 724.66L385.822 736.923" stroke="#73808E" stroke-width="0.974755" stroke-miterlimit="10"/>
<path d="M626.423 674.031L663.541 677.336" stroke="#73808E" stroke-width="0.487377" stroke-miterlimit="10"/>
<path d="M1470.94 642.135C1470.94 556.103 1401.19 486.359 1315.16 486.359C1229.13 486.359 1159.39 556.103 1159.39 642.135C1159.39 642.135 1248.92 701.731 1350.77 707.677C1452.62 713.623 1477.88 716.557 1477.88 716.557L1470.95 642.135H1470.94Z" fill="#F1F5F8"/>
<path d="M1514.49 757.643C1514.49 689.118 1458.94 633.566 1390.42 633.566C1321.89 633.566 1266.34 689.118 1266.34 757.643" fill="#D6DDE5"/>
<path d="M1428 825C1428 756.517 1363.98 701 1285 701C1206.02 701 1142 756.517 1142 825" fill="#D6DDE5"/>
<path d="M1201.23 822.894L1203.1 822.689C1203.1 822.601 1202.14 814.296 1198.84 804.471C1195.78 795.357 1190 783.026 1179.89 776.027L1178.81 777.567C1197.4 790.424 1201.19 822.572 1201.22 822.894H1201.23Z" fill="#929FAF"/>
<path d="M1169.58 781.018C1167.18 777.985 1168.69 772.802 1172.94 769.44C1177.19 766.079 1182.58 765.812 1184.98 768.845C1187.38 771.878 1185.87 777.061 1181.62 780.422C1177.37 783.784 1171.98 784.05 1169.58 781.018Z" fill="#929FAF"/>
<path d="M1196.21 793.271L1204.45 781.399L1197.02 778.445L1194.21 790.328L1196.21 793.271Z" fill="#929FAF"/>
<path d="M1188.19 790.989L1174.68 785.852L1173.61 793.767L1185.82 793.65L1188.19 790.989Z" fill="#929FAF"/>
<path d="M1193.65 800.941L1184.5 797.461L1183.78 802.822L1192.04 802.744L1193.65 800.941Z" fill="#929FAF"/>
<path d="M1198.4 796.703L1208.12 797.717L1206.37 802.825L1199.02 799.033L1198.4 796.703Z" fill="#929FAF"/>
<path d="M1047.95 796.128L1046.09 795.923C1046.09 795.835 1047.05 787.531 1050.35 777.705C1053.41 768.591 1059.18 756.26 1069.3 749.262L1070.37 750.802C1051.78 763.659 1048 795.806 1047.96 796.128H1047.95Z" fill="#73808E"/>
<path d="M1067.57 753.665C1063.32 750.304 1061.81 745.12 1064.21 742.088C1066.61 739.055 1072 739.322 1076.25 742.683C1080.51 746.045 1082.01 751.228 1079.61 754.26C1077.22 757.293 1071.83 757.026 1067.57 753.665Z" fill="#73808E"/>
<path d="M1052.98 766.506L1044.75 754.633L1052.16 751.68L1054.99 763.562L1052.98 766.506Z" fill="#73808E"/>
<path d="M1061.01 764.223L1074.51 759.086L1075.59 767.001L1063.37 766.884L1061.01 764.223Z" fill="#73808E"/>
<path d="M1055.55 774.179L1064.69 770.699L1065.42 776.06L1057.16 775.982L1055.55 774.179Z" fill="#73808E"/>
<path d="M1050.8 769.938L1041.06 770.941L1042.83 776.059L1050.18 772.267L1050.8 769.938Z" fill="#73808E"/>
<circle cx="21.4446" cy="21.4446" r="21.4446" transform="matrix(-1 0 0 1 1066.81 342.613)" fill="#62BEFF" fill-opacity="0.3"/>
<circle cx="14.6213" cy="14.6213" r="14.6213" transform="matrix(-1 0 0 1 1064.87 381.605)" fill="#62BEFF" fill-opacity="0.3"/>
<path d="M1068.27 332.914L1035.92 338.312C1032.02 338.963 1029.39 342.654 1030.04 346.558L1040.6 409.831C1041.25 413.735 1044.94 416.361 1048.84 415.709L1081.18 410.311L1068.27 332.914Z" fill="#42B1FF"/>
<path d="M1087.24 337.008C1086.59 333.105 1082.9 330.469 1079 331.121L1056.26 334.915C1052.35 335.567 1049.72 339.258 1050.37 343.162L1060.93 406.435C1061.58 410.339 1065.27 412.964 1069.17 412.313L1091.91 408.518C1095.82 407.867 1098.45 404.176 1097.8 400.282L1087.24 337.008Z" fill="#1293F1"/>
<path d="M1073.91 404.211C1073.91 404.211 1071.36 425.967 1098.92 425.967" stroke="#1293F1" stroke-width="4.87377" stroke-linecap="round" stroke-linejoin="round"/>
<path d="M1047.56 632.48H1106.16C1112.62 632.48 1117.86 637.717 1117.86 644.178V713.639C1117.86 720.099 1112.62 725.336 1106.16 725.336H1047.56C1041.1 725.336 1035.86 720.099 1035.86 713.639V644.178C1035.86 637.717 1041.1 632.48 1047.56 632.48Z" fill="#139DFF"/>
<path d="M1064.04 632.48H1122.64C1129.1 632.48 1134.34 637.717 1134.34 644.178V713.639C1134.34 720.099 1129.1 725.336 1122.64 725.336H1064.04C1057.58 725.336 1052.34 720.099 1052.34 713.639V644.178C1052.34 637.717 1057.58 632.48 1064.04 632.48Z" fill="#1293F1"/>
<path d="M1052.34 649.75H1134.34V656.359H1052.34V649.75Z" fill="#1076C8"/>
<path d="M1052.34 698.148H1134.34V704.757H1052.34V698.148Z" fill="#1076C8"/>
<path d="M1067.95 721.336C1067.95 721.336 1065.39 743.092 1092.96 743.092" stroke="#1293F1" stroke-width="4.87377" stroke-linecap="round" stroke-linejoin="round"/>
<path d="M1080.46 721.336C1080.46 721.336 1078.74 736.025 1097.35 736.025" stroke="#1293F1" stroke-width="4.87377" stroke-linecap="round" stroke-linejoin="round"/>
<path d="M1170.24 275.806L957.906 275.198L1006.99 154.873L1219.33 155.481L1170.24 275.806Z" fill="#0F63AC"/>
<path d="M1006.99 154.87L1010.39 158.965L962.691 277.555L957.908 275.195L1006.99 154.87Z" fill="#139DFF"/>
<path d="M1218.64 155.476L1222.04 159.571L1174.34 278.16L1169.57 275.799L1218.64 155.476Z" fill="#1293F1"/>
<path d="M1156.95 155.296L1160.35 159.391L1112.65 277.99L1107.88 275.619L1156.95 155.296Z" fill="#0D5090"/>
<path d="M1147.75 159.356L1155.14 159.384L1107.43 277.975L1098.72 277.946L1147.75 159.356Z" fill="#0C3C74"/>
<path d="M1148.78 155.281L1152.18 159.375L1104.47 277.965L1099.7 275.604L1148.78 155.281Z" fill="#0D5090"/>
<path d="M1088.11 155.105L1091.51 159.199L1043.8 277.791L1039.02 275.43L1088.11 155.105Z" fill="#0D5090"/>
<path d="M1078.91 159.163L1086.29 159.183L1038.59 277.773L1029.87 277.755L1078.91 159.163Z" fill="#0C3C74"/>
<path d="M1079.93 155.085L1083.33 159.18L1035.62 277.771L1030.85 275.41L1079.93 155.085Z" fill="#0D5090"/>
<path d="M1010.39 158.965L1222.05 159.571L1219.33 155.478L1006.99 154.87L1010.39 158.965Z" fill="#42B1FF"/>
<path d="M1174.34 278.165L962.692 277.559L963.632 275.212L1169.57 275.805" fill="#1076C8"/>
<path d="M1052.19 868.008H1145.77V883.604H1052.19V868.008Z" fill="#0C3C74"/>
<path d="M1098.82 876.42C1073.07 876.42 1052.2 872.37 1052.2 867.374C1052.2 862.378 1073.07 858.328 1098.82 858.328C1124.56 858.328 1145.43 862.378 1145.43 867.374C1145.43 872.37 1124.56 876.42 1098.82 876.42Z" fill="#1293F1"/>
<path d="M1098.82 890.701C1073.07 890.701 1052.2 887.585 1052.2 883.741C1052.2 879.897 1073.07 876.781 1098.82 876.781C1124.56 876.781 1145.43 879.897 1145.43 883.741C1145.43 887.585 1124.56 890.701 1098.82 890.701Z" fill="#0C3C74"/>
<path d="M1099.26 868.118C1092.89 868.118 1087.72 867.721 1087.72 867.231C1087.72 866.741 1092.89 866.344 1099.26 866.344C1105.64 866.344 1110.8 866.741 1110.8 867.231C1110.8 867.721 1105.64 868.118 1099.26 868.118Z" fill="#1076C8"/>
<path opacity="0.5" d="M1070.19 233.683L1080.33 209.1L1122.34 209.324L1113.63 233.328L1070.19 233.683Z" fill="#0C3C74"/>
<path d="M1078.22 221.762L1088.94 220.77V246.078L1078.22 248.063V221.762Z" fill="#1076C8"/>
<path d="M1091.87 250.987H1078.22V246.113H1091.87V250.987Z" fill="#0E5090"/>
<path d="M1083.15 250.012C1083.15 250.012 1080.77 271.456 1106.49 271.456" stroke="#1076C8" stroke-width="2.92426" stroke-linecap="square" stroke-linejoin="round"/>
<path d="M1087.97 867.032V220.695C1087.97 220.695 1091.52 218.82 1099.09 218.82C1106.66 218.82 1110.38 220.695 1110.38 220.695V867.032H1087.97Z" fill="#1076C8"/>
<mask id="mask1_2090_842" style="mask-type:alpha" maskUnits="userSpaceOnUse" x="1087" y="250" width="24" height="618">
<path d="M1087.43 867.227V252.284C1087.43 252.284 1092.84 250.5 1099.45 250.5C1106.06 250.5 1110.51 252.284 1110.51 252.284V867.227H1087.43Z" fill="#1076C8"/>
</mask>
<g mask="url(#mask1_2090_842)">
<rect width="52.6367" height="17.5456" transform="matrix(-0.979327 -0.202284 -0.202284 0.979327 1126.24 301.332)" fill="#FFBDC5"/>
<rect width="52.6367" height="17.5456" transform="matrix(-0.870012 0.493031 0.493031 0.870012 1117.26 485.059)" fill="#FFBDC5"/>
<rect width="52.6367" height="17.5456" transform="matrix(-0.870012 0.493031 0.493031 0.870012 1117.26 668.785)" fill="#C8CEFF"/>
<rect width="52.6367" height="17.5456" transform="matrix(-0.870012 0.493031 0.493031 0.870012 1117.26 784.781)" fill="#D5FAED"/>
<rect width="52.6367" height="17.5456" transform="matrix(-0.977548 -0.210714 -0.210714 0.977548 1126.27 535.008)" fill="#D5FAED"/>
<rect width="52.6367" height="17.5456" transform="matrix(-0.977548 -0.210714 -0.210714 0.977548 1126.27 718.738)" fill="#FFEFB6"/>
<rect width="52.6367" height="17.5456" transform="matrix(-0.977548 -0.210714 -0.210714 0.977548 1126.27 834.734)" fill="#FFBDC5"/>
<rect width="52.6367" height="17.5456" transform="matrix(-0.995168 0.0981869 0.0981869 0.995168 1124.02 582.402)" fill="#C8CEFF"/>
<rect width="52.6367" height="17.5456" transform="matrix(-0.849797 0.52711 0.52711 0.849797 1116.43 330.059)" fill="#FFCEAB"/>
<rect width="52.6367" height="17.5456" transform="matrix(-0.826751 -0.562568 -0.562568 0.826751 1125.38 410.484)" fill="#C8CEFF"/>
<rect width="52.6367" height="17.5456" transform="matrix(-0.826751 -0.562568 -0.562568 0.826751 1125.38 473.598)" fill="#FFEFB6"/>
<rect width="52.6367" height="17.5456" transform="matrix(-0.826751 -0.562568 -0.562568 0.826751 1125.38 657.328)" fill="#FFBDC5"/>
<rect width="52.6367" height="17.5456" transform="matrix(-0.826751 -0.562568 -0.562568 0.826751 1125.38 773.324)" fill="#FFEFB6"/>
<rect width="52.6367" height="17.5456" transform="matrix(-0.826751 -0.562568 -0.562568 0.826751 1125.38 351.754)" fill="#FFEFB6"/>
<rect width="52.6367" height="17.5456" transform="matrix(-0.960974 0.27664 0.27664 0.960974 1121.55 435.715)" fill="#D5FAED"/>
<rect width="52.6367" height="17.5456" transform="matrix(-0.960974 0.27664 0.27664 0.960974 1121.55 619.445)" fill="#FFBDC5"/>
<rect width="52.6367" height="17.5456" transform="matrix(-0.960974 0.27664 0.27664 0.960974 1121.55 735.438)" fill="#D5FAED"/>
</g>
<rect width="17.219" height="7.17457" rx="1.43491" transform="matrix(-1 0 0 1 646.514 624.18)" fill="#C1CBD5"/>
<rect width="17.219" height="7.17457" rx="1.43491" transform="matrix(-1 0 0 1 646.514 624.18)" stroke="#C1CBD5"/>
<path d="M642.768 587.316H633.216C631.804 587.316 630.498 588.024 629.723 589.182L629.575 589.419L624.8 597.686V597.687C624.097 598.911 624.054 600.397 624.668 601.646L624.799 601.893L629.575 610.161V610.162C630.324 611.466 631.717 612.264 633.216 612.264H642.768C644.18 612.264 645.486 611.556 646.261 610.398L646.408 610.161L651.185 601.893C651.887 600.668 651.93 599.182 651.315 597.934L651.185 597.688L646.408 589.419V589.418C645.707 588.196 644.438 587.419 643.047 587.326L642.768 587.316Z" fill="#A1A1A1" stroke="#C1CBD5" stroke-width="0.890963"/>
<path d="M635.835 678.532L637.902 599.066" stroke="#0D7AC7" stroke-width="2.67289" stroke-miterlimit="10"/>
<path d="M641.488 628.484H632.161" stroke="#ADB6C0" stroke-width="1.43491"/>
<path d="M642.209 602.652H632.882" stroke="#ADB6C0" stroke-width="2.86983"/>
<path d="M1093.96 906.362L1096.82 905.339C1096.77 905.212 1092.17 892.472 1083.29 878.241C1075.05 865.033 1061.35 847.77 1042.81 840.547L1041.71 843.374C1075.79 856.66 1093.78 905.865 1093.95 906.362H1093.96Z" fill="#58626E"/>
<path d="M1028.42 852.27C1023.51 848.388 1023.94 839.657 1029.38 832.767C1034.82 825.878 1043.22 823.439 1048.13 827.32C1053.04 831.201 1052.61 839.933 1047.17 846.823C1041.73 853.712 1033.33 856.151 1028.42 852.27Z" fill="#58626E"/>
<path d="M1078.05 861.593L1086.58 839.807L1073.8 837.945V857.723L1078.05 861.593Z" fill="#58626E"/>
<path d="M1061.47 861.018L1038.28 857.977L1039.54 870.843L1058.74 866.087L1061.47 861.018Z" fill="#58626E"/>
<path d="M1124.63 906.409L1121.34 906.049C1121.36 905.902 1123.03 891.262 1128.84 873.969C1134.23 857.925 1144.39 836.217 1162.19 823.906L1164.08 826.626C1131.35 849.259 1124.7 905.844 1124.64 906.419L1124.63 906.409Z" fill="#70818F"/>
<path d="M1159.17 831.656C1151.68 825.737 1149.03 816.612 1153.25 811.273C1157.47 805.935 1166.96 806.405 1174.44 812.323C1181.93 818.241 1184.58 827.367 1180.36 832.705C1176.15 838.044 1166.65 837.574 1159.17 831.656Z" fill="#70818F"/>
<path d="M1133.48 854.262L1118.97 833.353L1132.04 828.168L1137.02 849.086L1133.48 854.262Z" fill="#70818F"/>
<path d="M1147.6 850.258L1171.38 841.203L1173.27 855.142L1151.78 854.937L1147.6 850.258Z" fill="#70818F"/>
<path d="M1137.99 867.772L1154.1 861.64L1155.38 871.076L1140.82 870.94L1137.99 867.772Z" fill="#70818F"/>
<path d="M1129.63 860.304L1112.49 862.079L1115.59 871.085L1128.54 864.408L1129.63 860.304Z" fill="#70818F"/>
<path d="M811.625 729.106L584.02 704.737L658.101 687.191L838.918 701.813L811.625 729.106Z" fill="#C1CBD5"/>
<path d="M783.845 730.569L829.658 695.965" stroke="#8FA0B1" stroke-width="6.82328"/>
<path d="M723.897 723.743L793.592 690.602" stroke="#8FA0B1" stroke-width="6.82328"/>
<path d="M755.089 728.616L807.238 694.5" stroke="#8FA0B1" stroke-width="6.82328"/>
<path d="M688.807 723.258L765.812 689.629" stroke="#8FA0B1" stroke-width="6.82328"/>
<path d="M578.171 714.485L699.041 681.344" stroke="#8FA0B1" stroke-width="5.84853"/>
<path d="M615.212 714.485L736.082 681.344" stroke="#8FA0B1" stroke-width="5.84853"/>
<path d="M648.353 721.305L757.525 683.777" stroke="#8FA0B1" stroke-width="5.84853"/>
<path d="M819.592 775.601L824.936 603.699" stroke="#139DFF" stroke-width="7.02935" stroke-miterlimit="10"/>
<path d="M802.812 632.094H840.256C841.768 632.094 842.994 633.319 842.994 634.831V686.936C842.994 688.448 841.768 689.674 840.256 689.674H802.812C801.3 689.674 800.074 688.448 800.074 686.936V634.831C800.074 633.319 801.3 632.094 802.812 632.094Z" fill="#DDF1FF"/>
<path d="M813.102 548.465H836.77C840.876 548.465 844.696 550.651 846.749 554.227L858.583 574.716C860.636 578.271 860.636 582.664 858.583 586.241L846.749 606.73C844.696 610.284 840.898 612.492 836.77 612.492H813.102C808.995 612.492 805.176 610.306 803.122 606.73L791.288 586.241C789.235 582.686 789.235 578.293 791.288 574.716L803.122 554.227C805.176 550.673 808.973 548.465 813.102 548.465Z" fill="#C45B5B"/>
<path d="M698.369 724.785L806.957 738.475L811.055 734.75L705.074 721.805L698.369 724.785Z" fill="#C1CBD5"/>
<path d="M660.938 681.82L766.461 690.443L770.402 688.144L667.086 680.18L660.938 681.82Z" fill="#C1CBD5"/>
<path d="M698.84 720.711L702.348 721.133L-8.28076 1080.99V1060.95L698.84 720.711Z" fill="#C1CBD5"/>
</g>
<rect width="1388.54" height="939.809" transform="matrix(-1 0 0 1 1387.21 -19.9453)" fill="url(#paint0_radial_2090_842)"/>
<rect width="1388.54" height="939.809" transform="matrix(-1 0 0 1 1377.21 -19.9453)" fill="url(#paint1_radial_2090_842)"/>
</g>
<defs>
<radialGradient id="paint0_radial_2090_842" cx="0" cy="0" r="1" gradientUnits="userSpaceOnUse" gradientTransform="translate(1304.47 0.000217145) rotate(142.435) scale(887.598 887.598)">
<stop offset="0.424164" stop-color="white" stop-opacity="0.9"/>
<stop offset="1" stop-color="white" stop-opacity="0"/>
</radialGradient>
<radialGradient id="paint1_radial_2090_842" cx="0" cy="0" r="1" gradientUnits="userSpaceOnUse" gradientTransform="translate(1325.24 877.669) rotate(-153.435) scale(1265.97 1265.97)">
<stop offset="0.476448" stop-color="white" stop-opacity="0.4"/>
<stop offset="1" stop-color="white" stop-opacity="0"/>
</radialGradient>
<clipPath id="clip0_2090_842">
<rect width="1390" height="917" rx="7.79804" fill="white"/>
</clipPath>
<clipPath id="clip1_2090_842">
<rect width="2376.1" height="1237.29" fill="white" transform="matrix(-1 0 0 1 2124.13 -65.8086)"/>
</clipPath>
</defs>
</svg>
